<?xml version="1.0" encoding="utf-8"?>
<!-- Generator: Adobe Illustrator 23.0.5, SVG Export Plug-In . SVG Version: 6.00 Build 0)  -->
<svg version="1.1" id="Layer_1" xmlns="http://www.w3.org/2000/svg" xmlns:xlink="http://www.w3.org/1999/xlink" x="0px" y="0px" fill="#ffcc4c"
	 viewBox="0 0 200 200" style="enable-background:new 0 0 200 200;" xml:space="preserve">
<g>
	<path d="M100,198.5c-31.77,0-51.5-26.25-51.5-68.5c0-27.1,16.74-57.61,31.5-84.53c9.05-16.5,16.96-30.92,19.5-41.89
		c2.54,10.97,10.45,25.38,19.5,41.89c14.77,26.92,31.5,57.43,31.5,84.53C150.5,172.89,131.62,198.5,100,198.5z"/>
	<path d="M99.5,5.61c2.97,10.77,10.51,24.51,19.06,40.1C133.3,72.58,150,103.03,150,130c0,21.45-4.84,39.03-14,50.85
		c-8.7,11.22-21.14,17.15-36,17.15c-14.94,0-27.56-5.93-36.51-17.16C54.01,168.94,49,151.36,49,130c0-26.97,16.7-57.42,31.44-84.29
		C88.99,30.11,96.53,16.38,99.5,5.61 M99.5,1C95,29,48,84.76,48,130s21.9,69,52,69s51-23.76,51-69S104,29,99.5,1L99.5,1z"/>
</g>
</svg>
