<?xml version="1.0" encoding="utf-8"?>
<!-- Generator: Adobe Illustrator 23.0.5, SVG Export Plug-In . SVG Version: 6.00 Build 0)  -->
<svg version="1.1" id="Layer_1" xmlns="http://www.w3.org/2000/svg" xmlns:xlink="http://www.w3.org/1999/xlink" x="0px" y="0px" fill="#F7931F"
	 viewBox="0 0 100 200" style="enable-background:new 0 0 100 200;" xml:space="preserve">
<g>
	<path d="M50.49,198.5C19.65,198.5,0.5,172.25,0.5,130C0.5,85.57,31.22,17.96,49.99,1.67C68.77,18.82,99.5,86.76,99.5,130
		C99.5,172.89,81.18,198.5,50.49,198.5z"/>
	<path d="M49.98,2.34c8.94,8.41,20.96,28.86,30.84,52.58C92.38,82.63,99,110,99,130c0,21.45-4.7,39.04-13.6,50.86
		C76.97,192.07,64.89,198,50.49,198c-14.49,0-26.73-5.93-35.41-17.15C5.87,168.95,1,151.36,1,130c0-20.24,6.49-47.61,17.8-75.08
		C28.64,31.01,40.79,10.55,49.98,2.34 M50,1C31,17,0,84.76,0,130s21.26,69,50.49,69S100,175.24,100,130S68,17,50,1L50,1z"/>
</g>
</svg>
